<svg id="apostila" xmlns="http://www.w3.org/2000/svg" viewBox="0 0 84 84"><path id="contorno" class="cls-1" d="M42 2A40 40 0 1 1 2 42 40.08 40.08 0 0 1 42 2"/><g id="ico"><path class="cls-2" d="M48.7 60.3H28.2a3.33 3.33 0 0 1-3.3-3.3V28.3a3.33 3.33 0 0 1 3.3-3.3h20.5a3.33 3.33 0 0 1 3.3 3.3v11.8h-2.5V28.3a.79.79 0 0 0-.8-.8H28.2a.79.79 0 0 0-.8.8v28.8a.79.79 0 0 0 .8.8h20.5a.77.77 0 0 0 .8-.7v-2H52v2a3.23 3.23 0 0 1-3.3 3.1z"/><path class="cls-2" d="M29.5 31.7a1.11 1.11 0 0 1-1.1 1.1H24a1.11 1.11 0 0 1-1.1-1.1 1.11 1.11 0 0 1 1.1-1.1h4.4a1.11 1.11 0 0 1 1.1 1.1zM29.6 38.3a1.11 1.11 0 0 1-1.1 1.1h-4.4a1.11 1.11 0 0 1-1.1-1.1 1.11 1.11 0 0 1 1.1-1.1h4.4a1.11 1.11 0 0 1 1.1 1.1zM29.6 44.9a1.11 1.11 0 0 1-1.1 1.1h-4.4a1.11 1.11 0 0 1-1.1-1.1 1.11 1.11 0 0 1 1.1-1.1h4.4a1.11 1.11 0 0 1 1.1 1.1zM29.6 51.4a1.11 1.11 0 0 1-1.1 1.1h-4.4a1.11 1.11 0 0 1-1.1-1.1 1.11 1.11 0 0 1 1.1-1.1h4.4a1.18 1.18 0 0 1 1.1 1.1zM37.8 49.2v3.7h-2.1V42.7h4.2a4.1 4.1 0 0 1 2.8.9 3.38 3.38 0 0 1 0 4.8 4.1 4.1 0 0 1-2.8.9h-2.1v-.1zm0-1.6h2.1a1.73 1.73 0 0 0 1.3-.5 1.66 1.66 0 0 0 .5-1.2 2.14 2.14 0 0 0-.4-1.2 1.73 1.73 0 0 0-1.3-.5h-2.1v3.4h-.1zM45.3 52.9V42.7h3.6a4.54 4.54 0 0 1 3.2 1.2 4.14 4.14 0 0 1 1.2 3.1v1.7a4.14 4.14 0 0 1-1.2 3.1 4.38 4.38 0 0 1-3.2 1.2h-3.6v-.1zm2.1-8.6v7.1h1.4a2.27 2.27 0 0 0 1.8-.7 2.88 2.88 0 0 0 .6-1.9v-1.7a2.88 2.88 0 0 0-.6-1.9 2.14 2.14 0 0 0-1.8-.7h-1.4v-.2zM61.4 48.7H57V53h-2.1V42.7h7.2v1.6H57v2.8h4.4v1.6z"/></g></svg>